<svg xmlns="http://www.w3.org/2000/svg" width="419.96" height="512.22" viewBox="0 0 419.96 512.22">
  <path id="app-store" d="M451.73,352.45c-16.01-9.61-49.31-29.62-49.31-81.67,0-43.93,29.4-66.1,45.19-78.01l.33-.25a15,15,0,0,0,3.45-20.29c-35.28-52.97-95.87-54.5-107.65-54.28h-.07a117.607,117.607,0,0,0-23.1,2.41q4.05-3.24,7.84-6.9c25.24-24.42,39.11-60.45,38.04-98.88A15,15,0,0,0,351.46,0c-27.3,0-58.34,16.31-81.01,42.57-22.84,26.46-33.51,58.16-29.26,86.96a14.884,14.884,0,0,0,2.59,6.44c-4-1.34-8.23-2.9-12.41-4.44-15.88-5.85-33.89-12.48-50.75-12.48-.34,0-34.62.25-68.85,21.51C81.83,159.17,46.13,197.9,46.13,276.79c0,41.03,16.03,98.47,40.84,146.35,17.14,33.08,52.71,88.6,98.39,88.86h.49c33.31,0,60.91-19.67,79.68-19.67,32.06,0,43.47,19.89,78.14,19.89,31.08,0,61.2-23.61,89.53-70.16a404.066,404.066,0,0,0,23.44-45.19c9.45-21.3,9.45-24.14,9.45-26.22C466.09,361.08,458.79,356.69,451.73,352.45ZM293.16,62.17c12.31-14.26,27.82-24.84,42.51-29.51-2.81,23.29-12.65,44.28-28.12,59.24-10.84,10.49-23.85,17.31-37.06,19.66C271.89,95.08,279.77,77.68,293.16,62.17ZM406.12,428.82c-21.41,34.44-43.59,53.4-62.45,53.4-25.95,0-38.08-19.89-78.14-19.89-27.03,0-52.82,19.81-80,19.67-21.2-.12-48.76-27.96-71.92-72.66-22.77-43.93-37.48-95.96-37.48-132.55,0-51.8,17.03-88.87,50.59-110.19,26.13-16.59,52.86-17.52,53.99-17.55,23.42.06,55.93,20.79,79.62,20.79,21.33,0,49.89-21.89,83.45-21.89h.55c8.14-.16,46.57.75,73.57,30.05-19.08,16.07-45.48,44.97-45.48,92.78,0,64.94,41.07,93.45,60.47,105.34A371.837,371.837,0,0,1,406.12,428.82Z" transform="translate(-46.13)" fill="#fff"/>
</svg>
