<svg id="apple-store" xmlns="http://www.w3.org/2000/svg" width="512" height="512" viewBox="0 0 512 512">
  <g id="Group_17" data-name="Group 17">
    <g id="Group_16" data-name="Group 16">
      <path id="Path_5" data-name="Path 5" d="M407,0H105A105.119,105.119,0,0,0,0,105V407A105.119,105.119,0,0,0,105,512H407A105.119,105.119,0,0,0,512,407V105A105.119,105.119,0,0,0,407,0Zm75,407a75.085,75.085,0,0,1-75,75H105a75.085,75.085,0,0,1-75-75V105a75.085,75.085,0,0,1,75-75H407a75.085,75.085,0,0,1,75,75Z" fill="#fff"/>
    </g>
  </g>
  <g id="Group_19" data-name="Group 19">
    <g id="Group_18" data-name="Group 18">
      <path id="Path_6" data-name="Path 6" d="M305.646,123.531a25,25,0,0,0-45.8-6.029L256,124.166l-3.848-6.665A25.03,25.03,0,0,0,218,108.35h0a25.029,25.029,0,0,0-9.15,34.151l18.281,31.664L159.678,291H110.5a25,25,0,0,0,0,50H300.36l-28.868-50H217.413l85.735-148.5A24.834,24.834,0,0,0,305.646,123.531Z" fill="#fff"/>
    </g>
  </g>
  <g id="Group_21" data-name="Group 21">
    <g id="Group_20" data-name="Group 20">
      <path id="Path_7" data-name="Path 7" d="M401.5,291H352.322l-55.907-96.834-28.867,50,86.8,150.348a24.835,24.835,0,0,0,15.181,11.65,25.142,25.142,0,0,0,6.511.863,25.017,25.017,0,0,0,21.61-37.511L381.189,341H401.5a25,25,0,0,0,0-50Z" fill="#fff"/>
    </g>
  </g>
  <g id="Group_23" data-name="Group 23">
    <g id="Group_22" data-name="Group 22">
      <path id="Path_8" data-name="Path 8" d="M119.264,361l-4.917,8.516a25,25,0,0,0,43.3,25L177,361Z" fill="#fff"/>
    </g>
  </g>
</svg>
