<svg xmlns="http://www.w3.org/2000/svg" width="424.021" height="472.028" viewBox="0 0 424.021 472.028">
  <g id="order" transform="translate(-24.004 0)">
    <g id="Group_2" data-name="Group 2">
      <g id="Group_1" data-name="Group 1">
        <path id="Path_1" data-name="Path 1" d="M64,264a8,8,0,0,0-8,8v32a8,8,0,0,0,16,0V272A8,8,0,0,0,64,264Z" fill="#fff"/>
      </g>
    </g>
    <g id="Group_4" data-name="Group 4">
      <g id="Group_3" data-name="Group 3">
        <path id="Path_2" data-name="Path 2" d="M96,280a8,8,0,0,0-8,8v32a8,8,0,0,0,16,0V288A8,8,0,0,0,96,280Z" fill="#fff"/>
      </g>
    </g>
    <g id="Group_6" data-name="Group 6">
      <g id="Group_5" data-name="Group 5">
        <path id="Path_3" data-name="Path 3" d="M387.8,322.938a8,8,0,0,0-8.96,13.248A48,48,0,1,1,352,328a8,8,0,0,0,0-16A64,64,0,1,0,387.8,322.938Z" fill="#fff"/>
      </g>
    </g>
    <g id="Group_8" data-name="Group 8">
      <g id="Group_7" data-name="Group 7">
        <path id="Path_4" data-name="Path 4" d="M444.235,349.43A95.96,95.96,0,0,0,392,288.8V112a8,8,0,0,0-3.928-6.888l-176-104a8,8,0,0,0-8.144,0l-176,104c-.168.1-.288.24-.448.352s-.312.24-.472.368a7.886,7.886,0,0,0-1.768,1.952c0,.056-.1.088-.128.144v.056a8,8,0,0,0-.9,2.616,7.081,7.081,0,0,1-.1.7A7,7,0,0,0,24,112V320a8,8,0,0,0,3.928,6.888l176,104a6.575,6.575,0,0,0,.648.272,6.316,6.316,0,0,0,.672.288,7.136,7.136,0,0,0,5.5,0,6.444,6.444,0,0,0,.68-.288c.208-.1.432-.152.64-.272l47.768-28.232A95.96,95.96,0,0,0,444.235,349.43ZM208,17.29l41.6,24.584-61.68,36.448a8.005,8.005,0,1,0,8.144,13.784L265.34,51.2l41.6,24.584-160.272,94.68-41.6-24.584,67.016-39.6A8.005,8.005,0,1,0,163.94,92.5l-74.6,44.088L47.732,112ZM138.668,184.33v53.416L97.34,213.322V159.906Zm120.5,166.942a97.47,97.47,0,0,0-2.633,34.754L216,409.986V384a8,8,0,0,0-16,0v25.984L40,315.442V126.026L81.34,150.45v67.432a8,8,0,0,0,3.928,6.9l57.328,33.88a8,8,0,0,0,12.072-6.888V193.778L200,220.57V352a8,8,0,0,0,16,0V220.57L361,134.89a8,8,0,1,0-8.144-13.776L208,206.714l-45.6-26.952L322.676,85.05,376,116.562V283.2A95.616,95.616,0,0,0,259.165,351.272ZM352,456a80,80,0,1,1,80-80A80,80,0,0,1,352,456Z" fill="#fff"/>
      </g>
    </g>
    <g id="Group_10" data-name="Group 10">
      <g id="Group_9" data-name="Group 9">
        <path id="Path_5" data-name="Path 5" d="M381.464,354.346a8,8,0,0,0-11.116,0L340,384.69l-6.344-6.344a8,8,0,0,0-11.312,11.312l12,12a8,8,0,0,0,11.312,0l36-36A8,8,0,0,0,381.464,354.346Z" fill="#fff"/>
      </g>
    </g>
  </g>
</svg>
